<svg id="Layer_1" data-name="Layer 1" xmlns="http://www.w3.org/2000/svg" viewBox="0 0 122.88 19.15"><defs><style>.cls-1{fill:#009d72;}</style></defs><title>oppo-mobile</title><path class="cls-1" d="M12.7,12.1C10,12.1,3.18,11,3.18,6.93c0-2.85,4.26-5.16,9.52-5.16s9.52,2.31,9.52,5.16S18,12.1,12.7,12.1ZM77.87,0a26.39,26.39,0,0,0-6.51.79V2.57a15.65,15.65,0,0,1,5.08-.8C81.7,1.77,86,4.08,86,6.93S81.7,12.1,76.44,12.1c-3.62,0-6.77-1.1-8.38-2.71v-9h-5V19.15h5v-7a23.22,23.22,0,0,0,9.81,2c7.8,0,14.13-3.15,14.13-7S85.67,0,77.87,0ZM46,0a26.39,26.39,0,0,0-6.51.79V2.57a15.65,15.65,0,0,1,5.08-.8c5.26,0,9.52,2.31,9.52,5.16s-4.26,5.17-9.52,5.17C41,12.1,37.8,11,36.19,9.39v-9h-5V19.15h5v-7a23.22,23.22,0,0,0,9.81,2c7.8,0,14.13-3.15,14.13-7S53.8,0,46,0Zm61.32,12.1c-2.67,0-9.53-1.08-9.53-5.17,0-2.85,4.27-5.16,9.53-5.16s9.51,2.31,9.51,5.16-4.26,5.17-9.51,5.17ZM108.75,0c-7.81,0-14.14,3.15-14.14,7s6.33,7,14.14,7,14.13-3.15,14.13-7-6.33-7-14.13-7ZM14.14,0C6.33,0,0,3.15,0,7s6.33,7,14.14,7,14.13-3.15,14.13-7S21.94,0,14.14,0Z"/></svg>