<svg id="Layer_1" data-name="Layer 1" xmlns="http://www.w3.org/2000/svg" viewBox="0 0 122.88 122.88"><defs><style>.cls-1{fill:#ffc915;fill-rule:evenodd;}</style></defs><title>realme-mobile</title><polygon class="cls-1" points="0 0 122.88 0 122.88 122.88 0 122.88 0 0 0 0"/><path d="M58.65,65.58a.64.64,0,0,1-.15-.4.61.61,0,0,1,.6-.62h9C79,64.56,88,56.28,88,44.23c0-11.51-8.63-20.44-21.89-20.44H35.79a.85.85,0,0,0-.92.94v3.82a.85.85,0,0,0,.92.94h30c10.31,0,16,5.6,16,14.74s-5.69,14.63-16,14.63H53.63a.86.86,0,0,0-.93.94V67a1.41,1.41,0,0,0,.24.89L80.15,98.68a1.23,1.23,0,0,0,1,.41h6.2a.57.57,0,0,0,.43-1L58.65,65.58Zm7.22-19.33a.83.83,0,0,1-.85.94H41.23a.61.61,0,0,0-.61.67V98.15a.83.83,0,0,1-.86.94h-4c-.54,0-.85-.27-.85-.94V42.45c0-.59.31-.94.85-.94H65a.83.83,0,0,1,.85.94v3.8Z"/></svg>