<svg id="Layer_1" data-name="Layer 1" xmlns="http://www.w3.org/2000/svg" viewBox="0 0 122.87 122.88"><defs><style>.cls-1{fill:#ff6700;fill-rule:evenodd;}.cls-2{fill:#fff;}</style></defs><title>xiaomi-mi</title><path class="cls-1" d="M118.21,122.88H4.66A4.66,4.66,0,0,1,0,118.22V4.66A4.66,4.66,0,0,1,4.66,0H118.21a4.66,4.66,0,0,1,4.66,4.66V118.22a4.66,4.66,0,0,1-4.66,4.66Z"/><path class="cls-2" d="M96.35,38.65H86.68a.74.74,0,0,0-.75.73V83.49a.74.74,0,0,0,.75.73h9.67a.74.74,0,0,0,.75-.73V39.38a.74.74,0,0,0-.75-.73Zm0,0Z"/><path class="cls-2" d="M63.34,38.65H26.52a.74.74,0,0,0-.75.73V83.49a.74.74,0,0,0,.75.73h9.67a.74.74,0,0,0,.75-.73V48.87a.74.74,0,0,1,.75-.73H58.52c5.85,0,7.52,4.49,7.52,7.38v28a.74.74,0,0,0,.75.73h9.66a.74.74,0,0,0,.75-.73V52.2a12.51,12.51,0,0,0-3.64-9.56,13.06,13.06,0,0,0-10.22-4Zm0,0Z"/><path class="cls-2" d="M56.57,56.22H46.42a.75.75,0,0,0-.76.73V83.49a.74.74,0,0,0,.76.73H56.57a.74.74,0,0,0,.75-.73V57a.74.74,0,0,0-.75-.73Z"/></svg>